# xmcd
#
# Track frame offsets:
#	150
#	67754
#	142887
#	195624
#	270787
#
# Disc length: 4470 seconds
#
# Revision: 0
# Processed by: cddbd v1.5.2PL0 Copyright (c) Steve Scherf et al.
# Submitted via: audiograbber 1.83.01
#
DISCID=37117405
DTITLE=Various Artist - XMiX Dancehall Devastation 14
DYEAR=2013
DGENRE=Reggae
TTITLE0=Various Artist - DJ Serg's Total Recall 2013
TTITLE1=Various Artist - The Whine N' Brukout Megamix
TTITLE2=Various Artist - Raw Cut Riddin Megamix
TTITLE3=Various Artist - WB's Latin Spice Mix-Up Part 2
TTITLE4=Various Artist - Big City's Overtime Riddim
EXTD=
EXTT0=
EXTT1=
EXTT2=
EXTT3=
EXTT4=
PLAYORDER=
